<?xml version="1.0" encoding="iso-8859-1" standalone="no"?> 
<?xml-stylesheet href="latex-5680bpP.css" type="text/css"?> 
<svg xmlns="http://www.w3.org/2000/svg" xmlns:xlink="http://www.w3.org/1999/xlink" width="256.47467pt" height="171.11646pt" viewBox="-42.87907 -227.822 256.47467 171.11646 "> 
<g transform="translate(0, -56.70555 ) scale(1,-1) translate(0,227.822 )"> 
             <g>
 <g stroke="rgb(0.0%,0.0%,0.0%)">
 <g fill="rgb(0.0%,0.0%,0.0%)">
 <g stroke-width="0.4pt">
 <g>
 </g>
 <g>
 <g>
 <g fill-opacity="0.5">
 <g>
 <g fill="rgb(0.0%,100.0%,0.0%)">
 <g stroke="rgb(0.0%,0.0%,0.0%)">
 <path d=" M  42.67915 -142.26378 M  128.03738 -142.26378 C  128.03738 -95.12112 89.82181 -56.90555 42.67915 -56.90555 C  -4.4635 -56.90555 -42.67908 -95.12112 -42.67908 -142.26378 C  -42.67908 -189.40643 -4.4635 -227.62201 42.67915 -227.62201 C  89.82181 -227.62201 128.03738 -189.40643 128.03738 -142.26378 Z M  42.67915 -142.26378  " />
 </g>
 </g>
 </g>
 <g>
 <g fill="rgb(0.0%,0.0%,100.0%)">
 <g stroke="rgb(0.0%,0.0%,0.0%)">
 <path d=" M  128.03737 -142.26378 M  213.3956 -142.26378 C  213.3956 -95.12112 175.18002 -56.90555 128.03737 -56.90555 C  80.89471 -56.90555 42.67914 -95.12112 42.67914 -142.26378 C  42.67914 -189.40643 80.89471 -227.62201 128.03737 -227.62201 C  175.18002 -227.62201 213.3956 -189.40643 213.3956 -142.26378 Z M  128.03737 -142.26378  " />
 </g>
 </g>
 </g>
 <g>
 <g>
 <g transform="matrix(1.0,0.0,0.0,1.0,-4.39096,-117.97769)">
 <g fill="rgb(0.0%,0.0%,0.0%)">
 <text style="stroke:none" transform="scale(1,-1) translate(18.61737,0)" text-anchor="middle"  font-size="10"> 
<tspan font-family="cmbx" font-size="12">Useful</tspan></text> 
</g>
 </g>
 </g>
 </g>
 <g>
 <g>
 <g transform="matrix(1.0,0.0,0.0,1.0,131.86163,-117.97769)">
 <g fill="rgb(0.0%,0.0%,0.0%)">
 <text style="stroke:none" transform="scale(1,-1) translate(24.62848,0)" text-anchor="middle"  font-size="10"> 
<tspan font-family="cmbx" font-size="12">Harmful</tspan></text> 
</g>
 </g>
 </g>
 </g>
 <g>
 <g>
 <g transform="matrix(1.0,0.0,0.0,1.0,54.15408,-145.21379)">
 <g fill="rgb(0.0%,0.0%,0.0%)">
 <text style="stroke:none" transform="scale(1,-1) translate(31.20418,0)" text-anchor="middle"  font-size="10"> 
<tspan font-family="cmbx" font-size="12">Dangerous</tspan></text> 
</g>
 </g>
 </g>
 </g>
 </g>
 </g>
 </g>
 </g>
 </g>
 </g>
 </g>
 
                                                         </g> 
</svg> 
